<svg xmlns="http://www.w3.org/2000/svg" width="430" height="200" viewBox="0 0 430 200" role="img" aria-label="Vettra: Real-time authorization middleware for AI agents. Intercepts risky actions before they run, waits for human approval, and keeps a hash-chained audit trail."><rect x="0.5" y="0.5" width="429" height="199" rx="10" fill="#050a07" stroke="#123a25"/><path d="M12 20 v-8 h10" fill="none" stroke="#39d353" stroke-width="1.5" stroke-opacity="0.7"/><path d="M418 180 v8 h-10" fill="none" stroke="#39d353" stroke-width="1.5" stroke-opacity="0.7"/><g font-family="SFMono-Regular,Consolas,Liberation Mono,monospace"><text x="20" y="46" font-size="19" fill="#39d353" font-weight="600">Vettra</text><text x="410" y="42" font-size="9.5" fill="#e3b341" text-anchor="end" letter-spacing="0.5">AUTH0 HACKATHON / BLOG POST PRIZE</text><text x="20" y="70" font-size="12" fill="#c9d7cf">Real-time authorization middleware for AI agents.</text><text x="20" y="87" font-size="12" fill="#c9d7cf">Intercepts risky actions before they run, waits for</text><text x="20" y="104" font-size="12" fill="#c9d7cf">human approval, and keeps a hash-chained audit trail.</text><rect x="20.0" y="141" width="50.0" height="17" rx="4" fill="#0d1f16" stroke="#123a25"/><text x="45.0" y="153" font-size="10" fill="#7fd8a4" text-anchor="middle">Python</text><rect x="76.0" y="141" width="38.0" height="17" rx="4" fill="#0d1f16" stroke="#123a25"/><text x="95.0" y="153" font-size="10" fill="#7fd8a4" text-anchor="middle">Rust</text><rect x="120.0" y="141" width="74.0" height="17" rx="4" fill="#0d1f16" stroke="#123a25"/><text x="157.0" y="153" font-size="10" fill="#7fd8a4" text-anchor="middle">JavaScript</text><rect x="200.0" y="141" width="38.0" height="17" rx="4" fill="#0d1f16" stroke="#123a25"/><text x="219.0" y="153" font-size="10" fill="#7fd8a4" text-anchor="middle">HTML</text><rect x="244.0" y="141" width="32.0" height="17" rx="4" fill="#0d1f16" stroke="#123a25"/><text x="260.0" y="153" font-size="10" fill="#7fd8a4" text-anchor="middle">CSS</text><rect x="282.0" y="141" width="44.0" height="17" rx="4" fill="#0d1f16" stroke="#123a25"/><text x="304.0" y="153" font-size="10" fill="#7fd8a4" text-anchor="middle">Shell</text><text x="392" y="153" font-size="10" fill="#5c7a68" text-anchor="end">open &gt;</text></g></svg>